<svg xmlns="http://www.w3.org/2000/svg" viewBox="0 0 840 382" width="100%" role="img" aria-label="Sektor terkuat dan terlemah — 24 jam" style="max-width:840px;height:auto;font-family:-apple-system,BlinkMacSystemFont,'Segoe UI',Roboto,sans-serif">
<rect width="840" height="382" rx="14" fill="#ffffff"/>
<text x="30" y="30" font-size="15" fill="#0b0b0b" font-weight="700" text-anchor="start">Sektor terkuat dan terlemah — 24 jam</text>
<line x1="396" y1="50" x2="396" y2="364" stroke="#e3e6ea" stroke-width="1.5"/>
<text x="30" y="72" font-size="12" fill="#0b0b0b" font-weight="600" text-anchor="start">Robinhood Chain Meme</text>
<rect x="396.0" y="61" width="190.0" height="15" rx="3" fill="#1BAF7A" opacity="0.85"/>
<text x="594" y="73" font-size="11.5" fill="#1BAF7A" font-weight="650" text-anchor="start">▲ +12,87%</text>
<text x="816" y="73" font-size="11" fill="#5b6472" font-weight="400" text-anchor="end">$615,6 jt</text>
<text x="30" y="102" font-size="12" fill="#0b0b0b" font-weight="600" text-anchor="start">Binance Wallet IDO</text>
<rect x="396.0" y="91" width="181.3" height="15" rx="3" fill="#1BAF7A" opacity="0.85"/>
<text x="585.2900409104972" y="103" font-size="11.5" fill="#1BAF7A" font-weight="650" text-anchor="start">▲ +12,28%</text>
<text x="816" y="103" font-size="11" fill="#5b6472" font-weight="400" text-anchor="end">$1,7 mlr</text>
<text x="30" y="132" font-size="12" fill="#0b0b0b" font-weight="600" text-anchor="start">Cat-Themed</text>
<rect x="396.0" y="121" width="135.5" height="15" rx="3" fill="#1BAF7A" opacity="0.85"/>
<text x="539.5035587351944" y="133" font-size="11.5" fill="#1BAF7A" font-weight="650" text-anchor="start">▲ +9,18%</text>
<text x="816" y="133" font-size="11" fill="#5b6472" font-weight="400" text-anchor="end">$813,9 jt</text>
<text x="30" y="162" font-size="12" fill="#0b0b0b" font-weight="600" text-anchor="start">AI Applications</text>
<rect x="396.0" y="151" width="110.0" height="15" rx="3" fill="#1BAF7A" opacity="0.85"/>
<text x="513.9849528116993" y="163" font-size="11.5" fill="#1BAF7A" font-weight="650" text-anchor="start">▲ +7,45%</text>
<text x="816" y="163" font-size="11" fill="#5b6472" font-weight="400" text-anchor="end">$2,2 mlr</text>
<text x="30" y="192" font-size="12" fill="#0b0b0b" font-weight="600" text-anchor="start">Rollup</text>
<rect x="396.0" y="181" width="99.0" height="15" rx="3" fill="#1BAF7A" opacity="0.85"/>
<text x="503.0469708544329" y="193" font-size="11.5" fill="#1BAF7A" font-weight="650" text-anchor="start">▲ +6,71%</text>
<text x="816" y="193" font-size="11" fill="#5b6472" font-weight="400" text-anchor="end">$1,6 mlr</text>
<text x="30" y="222" font-size="12" fill="#0b0b0b" font-weight="600" text-anchor="start">Neobank</text>
<rect x="396.0" y="211" width="49.5" height="15" rx="3" fill="#1BAF7A" opacity="0.85"/>
<text x="453.47483542090436" y="223" font-size="11.5" fill="#1BAF7A" font-weight="650" text-anchor="start">▲ +3,35%</text>
<text x="816" y="223" font-size="11" fill="#5b6472" font-weight="400" text-anchor="end">$2,8 mlr</text>
<text x="30" y="252" font-size="12" fill="#0b0b0b" font-weight="600" text-anchor="start">Murad Picks</text>
<rect x="308.8" y="241" width="87.2" height="15" rx="3" fill="#D03B3B" opacity="0.85"/>
<text x="300.81692330499965" y="253" font-size="11.5" fill="#D03B3B" font-weight="650" text-anchor="end">▼ -5,91%</text>
<text x="816" y="253" font-size="11" fill="#5b6472" font-weight="400" text-anchor="end">$636,8 jt</text>
<text x="30" y="282" font-size="12" fill="#0b0b0b" font-weight="600" text-anchor="start">Stock market-themed</text>
<rect x="299.0" y="271" width="97.0" height="15" rx="3" fill="#D03B3B" opacity="0.85"/>
<text x="291.003709773222" y="283" font-size="11.5" fill="#D03B3B" font-weight="650" text-anchor="end">▼ -6,57%</text>
<text x="816" y="283" font-size="11" fill="#5b6472" font-weight="400" text-anchor="end">$506,9 jt</text>
<text x="30" y="312" font-size="12" fill="#0b0b0b" font-weight="600" text-anchor="start">Bridged-Tokens</text>
<rect x="298.3" y="301" width="97.7" height="15" rx="3" fill="#D03B3B" opacity="0.85"/>
<text x="290.2762329463845" y="313" font-size="11.5" fill="#D03B3B" font-weight="650" text-anchor="end">▼ -6,62%</text>
<text x="816" y="313" font-size="11" fill="#5b6472" font-weight="400" text-anchor="end">$583,4 jt</text>
<text x="30" y="342" font-size="12" fill="#0b0b0b" font-weight="600" text-anchor="start">BackedFi xStocks Ecos…</text>
<rect x="250.3" y="331" width="145.7" height="15" rx="3" fill="#D03B3B" opacity="0.85"/>
<text x="242.27327771876128" y="343" font-size="11.5" fill="#D03B3B" font-weight="650" text-anchor="end">▼ -9,87%</text>
<text x="816" y="343" font-size="11" fill="#5b6472" font-weight="400" text-anchor="end">$724,8 jt</text>
</svg>