<svg xmlns="http://www.w3.org/2000/svg" viewBox="0 0 840 260" width="100%" role="img" aria-label="Indeks Fear &amp; Greed — 30 hari terakhir" style="max-width:840px;height:auto;font-family:-apple-system,BlinkMacSystemFont,'Segoe UI',Roboto,sans-serif">
<rect width="840" height="260" rx="14" fill="#ffffff"/>
<text x="52" y="30" font-size="15" fill="#0b0b0b" font-weight="700" text-anchor="start">Indeks Fear &amp; Greed — 30 hari terakhir</text>
<rect x="52" y="181" width="670" height="41.0" fill="#D03B3B" opacity="0.09"/>
<text x="732" y="205.5" font-size="10.5" fill="#5b6472" font-weight="400" text-anchor="start">Takut ekstrem</text>
<rect x="52" y="148.2" width="670" height="32.8" fill="#EDA100" opacity="0.09"/>
<text x="732" y="168.6" font-size="10.5" fill="#5b6472" font-weight="400" text-anchor="start">Takut</text>
<rect x="52" y="131.8" width="670" height="16.4" fill="#9aa4b2" opacity="0.09"/>
<text x="732" y="144" font-size="10.5" fill="#5b6472" font-weight="400" text-anchor="start">Netral</text>
<rect x="52" y="99" width="670" height="32.8" fill="#1BAF7A" opacity="0.09"/>
<text x="732" y="119.4" font-size="10.5" fill="#5b6472" font-weight="400" text-anchor="start">Serakah</text>
<rect x="52" y="58" width="670" height="41.0" fill="#0CA30C" opacity="0.09"/>
<text x="732" y="82.5" font-size="10.5" fill="#5b6472" font-weight="400" text-anchor="start">Serakah ekstrem</text>
<text x="42" y="226" font-size="11" fill="#5b6472" font-weight="400" text-anchor="end">0</text>
<text x="42" y="144" font-size="11" fill="#5b6472" font-weight="400" text-anchor="end">50</text>
<text x="42" y="62" font-size="11" fill="#5b6472" font-weight="400" text-anchor="end">100</text>
<path d="M52.0,181.0 L75.1,174.4 L98.2,172.8 L121.3,171.2 L144.4,172.8 L167.5,174.4 L190.6,177.7 L213.7,174.4 L236.8,174.4 L259.9,166.2 L283.0,166.2 L306.1,171.2 L329.2,154.8 L352.3,146.6 L375.4,120.3 L398.6,103.9 L421.7,105.6 L444.8,113.8 L467.9,102.3 L491.0,100.6 L514.1,115.4 L537.2,105.6 L560.3,102.3 L583.4,110.5 L606.5,108.8 L629.6,120.3 L652.7,108.8 L675.8,118.7 L698.9,115.4 L722.0,100.6" fill="none" stroke="#4A3AA7" stroke-width="2.5" stroke-linejoin="round"/>
<circle cx="722.0" cy="100.6" r="5.5" fill="#4A3AA7"/>
<text x="712" y="88.64" font-size="12" fill="#0b0b0b" font-weight="700" text-anchor="end">hari ini: 74</text>
<text x="52" y="246" font-size="11" fill="#5b6472" font-weight="400" text-anchor="start">6/8</text>
<text x="722" y="246" font-size="11" fill="#5b6472" font-weight="400" text-anchor="end">4/9</text>
</svg>