<svg xmlns="http://www.w3.org/2000/svg" viewBox="0 0 840 382" width="100%" role="img" aria-label="Sektor terkuat dan terlemah — 24 jam" style="max-width:840px;height:auto;font-family:-apple-system,BlinkMacSystemFont,'Segoe UI',Roboto,sans-serif">
<rect width="840" height="382" rx="14" fill="#ffffff"/>
<text x="30" y="30" font-size="15" fill="#0b0b0b" font-weight="700" text-anchor="start">Sektor terkuat dan terlemah — 24 jam</text>
<line x1="396" y1="50" x2="396" y2="364" stroke="#e3e6ea" stroke-width="1.5"/>
<text x="30" y="72" font-size="12" fill="#0b0b0b" font-weight="600" text-anchor="start">Robinhood Chain Meme</text>
<rect x="396.0" y="61" width="190.0" height="15" rx="3" fill="#1BAF7A" opacity="0.85"/>
<text x="594" y="73" font-size="11.5" fill="#1BAF7A" font-weight="650" text-anchor="start">▲ +64,06%</text>
<text x="816" y="73" font-size="11" fill="#5b6472" font-weight="400" text-anchor="end">$1,0 mlr</text>
<text x="30" y="102" font-size="12" fill="#0b0b0b" font-weight="600" text-anchor="start">Pons Launchpad</text>
<rect x="396.0" y="91" width="126.6" height="15" rx="3" fill="#1BAF7A" opacity="0.85"/>
<text x="530.644492201901" y="103" font-size="11.5" fill="#1BAF7A" font-weight="650" text-anchor="start">▲ +42,70%</text>
<text x="816" y="103" font-size="11" fill="#5b6472" font-weight="400" text-anchor="end">$536,9 jt</text>
<text x="30" y="132" font-size="12" fill="#0b0b0b" font-weight="600" text-anchor="start">Quantum-Resistant</text>
<rect x="396.0" y="121" width="44.4" height="15" rx="3" fill="#1BAF7A" opacity="0.85"/>
<text x="448.3662411668166" y="133" font-size="11.5" fill="#1BAF7A" font-weight="650" text-anchor="start">▲ +14,96%</text>
<text x="816" y="133" font-size="11" fill="#5b6472" font-weight="400" text-anchor="end">$17,2 mlr</text>
<text x="30" y="162" font-size="12" fill="#0b0b0b" font-weight="600" text-anchor="start">Stock market-themed</text>
<rect x="396.0" y="151" width="43.4" height="15" rx="3" fill="#1BAF7A" opacity="0.85"/>
<text x="447.37040033629717" y="163" font-size="11.5" fill="#1BAF7A" font-weight="650" text-anchor="start">▲ +14,62%</text>
<text x="816" y="163" font-size="11" fill="#5b6472" font-weight="400" text-anchor="end">$578,2 jt</text>
<text x="30" y="192" font-size="12" fill="#0b0b0b" font-weight="600" text-anchor="start">Bridged-Tokens</text>
<rect x="396.0" y="181" width="42.5" height="15" rx="3" fill="#1BAF7A" opacity="0.85"/>
<text x="446.52176319896284" y="193" font-size="11.5" fill="#1BAF7A" font-weight="650" text-anchor="start">▲ +14,34%</text>
<text x="816" y="193" font-size="11" fill="#5b6472" font-weight="400" text-anchor="end">$663,7 jt</text>
<text x="30" y="222" font-size="12" fill="#0b0b0b" font-weight="600" text-anchor="start">Zero Knowledge (ZK)</text>
<rect x="396.0" y="211" width="40.7" height="15" rx="3" fill="#1BAF7A" opacity="0.85"/>
<text x="444.7175739911314" y="223" font-size="11.5" fill="#1BAF7A" font-weight="650" text-anchor="start">▲ +13,73%</text>
<text x="816" y="223" font-size="11" fill="#5b6472" font-weight="400" text-anchor="end">$19,4 mlr</text>
<text x="30" y="252" font-size="12" fill="#0b0b0b" font-weight="600" text-anchor="start">US Treasury-backed St…</text>
<rect x="394.5" y="241" width="1.5" height="15" rx="3" fill="#D03B3B" opacity="0.85"/>
<text x="386.46005918978784" y="253" font-size="11.5" fill="#D03B3B" font-weight="650" text-anchor="end">▼ -0,52%</text>
<text x="816" y="253" font-size="11" fill="#5b6472" font-weight="400" text-anchor="end">$2,2 mlr</text>
<text x="30" y="282" font-size="12" fill="#0b0b0b" font-weight="600" text-anchor="start">Algorithmic Stablecoin</text>
<rect x="394.4" y="271" width="1.6" height="15" rx="3" fill="#D03B3B" opacity="0.85"/>
<text x="386.35046758835193" y="283" font-size="11.5" fill="#D03B3B" font-weight="650" text-anchor="end">▼ -0,56%</text>
<text x="816" y="283" font-size="11" fill="#5b6472" font-weight="400" text-anchor="end">$1,5 mlr</text>
<text x="30" y="312" font-size="12" fill="#0b0b0b" font-weight="600" text-anchor="start">Morpho Ecosystem</text>
<rect x="393.8" y="301" width="2.2" height="15" rx="3" fill="#D03B3B" opacity="0.85"/>
<text x="385.8136202263698" y="313" font-size="11.5" fill="#D03B3B" font-weight="650" text-anchor="end">▼ -0,74%</text>
<text x="816" y="313" font-size="11" fill="#5b6472" font-weight="400" text-anchor="end">$1,7 mlr</text>
<text x="30" y="342" font-size="12" fill="#0b0b0b" font-weight="600" text-anchor="start">Superstate Ecosystem</text>
<rect x="391.5" y="331" width="4.5" height="15" rx="3" fill="#D03B3B" opacity="0.85"/>
<text x="383.54695521328614" y="343" font-size="11.5" fill="#D03B3B" font-weight="650" text-anchor="end">▼ -1,50%</text>
<text x="816" y="343" font-size="11" fill="#5b6472" font-weight="400" text-anchor="end">$836,9 jt</text>
</svg>